<?xml version="1.0" encoding="utf-8" ?><svg xmlns="http://www.w3.org/2000/svg" xmlns:xlink="http://www.w3.org/1999/xlink" width="1024" height="1024" viewBox="0 0 1024 1024"><path fill="#FCF8EE" d="M312.102 175.972C325.763 175.425 343.25 175.94 357.127 175.956L436.024 176.152C438.819 180.781 442.188 188.352 444.601 193.411L459.017 223.645C476.573 260.29 494.468 299.007 512.728 335.043C521.262 320.285 531.63 296.301 539.297 280.458C556.259 245.847 572.987 211.122 589.479 176.284C601.009 175.679 617.518 176.223 629.344 176.243C656.068 176.36 682.792 176.322 709.515 176.129L709.634 591.102L709.593 712.897L709.571 748.599C709.523 770.559 708.095 769.15 717.406 789.103L700.221 789.315C697.828 784.984 694.798 777.81 692.706 773.205C688.338 763.492 683.89 753.814 679.362 744.174L631.081 642.191L557.838 489.598C542.746 459.078 527.827 428.473 513.084 397.783C469.949 491.957 425.016 585.296 378.308 677.75L355.08 723.683C350.918 731.928 343.608 745.49 341.001 753.948C340.243 756.406 340.529 772.873 340.541 776.729L340.637 819.555C367.214 819.222 395.683 819.316 422.254 819.595L491.115 678.436C498.444 663.445 505.681 647.646 513.224 632.863L555.282 717.882C565.579 739.315 575.991 760.692 586.518 782.013C592.55 794.37 598.704 807.529 605.041 819.669C639.078 818.961 675.7 819.471 709.831 819.605C717.294 830.508 718.753 834.967 718.541 847.6C675.598 847.559 630.978 847.048 588.138 847.901C585.094 842.604 581.33 833.968 578.474 828.131L557.561 785.312C543.22 755.825 527.488 725.694 513.737 696.041C508.101 707.266 502.715 718.988 497.179 730.331L461.268 803.36C454.831 816.448 445.834 836.267 438.877 848.504L311.718 848.483L312.056 404.223L312.049 251.39C312.059 226.828 311.494 200.387 312.102 175.972ZM340.442 688.898L391.665 584.363C415.424 535.948 438.918 487.403 462.146 438.731L484.302 392.561C487.451 385.955 493.952 373.023 496.169 366.375C478.309 330.196 460.722 293.883 443.409 257.438L426.503 222.366C424.302 217.757 420.493 210.358 418.698 205.764C410.117 205.195 398.265 205.566 389.292 205.577C373.113 205.544 356.935 205.605 340.757 205.76C341.593 228.679 340.764 256.244 340.752 279.502L340.715 426.098L340.547 571.013C340.697 609.368 341.539 650.67 340.442 688.898ZM529.111 366.724C543.762 398.127 559.705 429.551 574.828 460.791L645.569 609.996C657.656 635.918 671.594 664 682.513 690.086L681.533 496.038L681.527 262.36L681.588 225.989C681.59 218.971 681.353 210.329 681.958 203.542L606.421 203.493C600.437 217.825 593.351 232.303 586.641 246.349L559.557 302.815C549.973 322.659 539.208 347.762 529.111 366.724Z"/><path fill="#FCF8EE" d="M376.938 237.411C382.643 237.519 388.349 237.521 394.054 237.417C397 241.757 401.548 251.2 404.108 256.171L420.288 287.218C433.862 313.007 450.351 341.548 462.915 367.359C457.907 380.207 452.91 390.888 447.051 403.351C442.619 396.335 434.442 379.163 430.502 371.109C422.665 355.089 413.519 338.115 406.212 322.078C406.77 333.222 406.487 346.362 406.494 357.666L406.52 417.25L406.601 465.237C406.608 468.155 406.919 487.306 406.246 489.077C399.576 506.628 390.209 523.54 382.873 540.892C381.249 544.732 379.459 548.642 377.495 552.307C376.804 546.18 376.962 537.16 376.959 530.904C376.946 519.639 377.001 508.374 377.125 497.109L377.15 411.469L376.965 303.189L376.67 264.036C376.61 255.501 376.349 245.827 376.938 237.411Z"/><path fill="#FCF8EE" d="M619.014 238.499C623.042 238.505 645.917 237.933 647.625 239.075L647.641 443.869L647.667 514.966C647.663 525.178 647.195 537.189 647.548 547.124C643.31 541.492 635.675 523.728 632.166 516.319C618.643 487.294 605.317 458.178 592.187 428.973C586.521 416.541 580.782 404.142 574.971 391.776C572.661 386.922 565.526 372.444 563.952 367.715C568.27 357.175 574.844 345.74 579.584 334.762L603.638 388.547C608.337 399.008 616.017 415.09 619.559 425.488L619.266 303.73L619.056 266.51C619.01 260.415 618.731 251.026 619.073 245.097L619.014 238.499Z"/><path fill="#BAB9B1" d="M619.014 238.499C623.042 238.505 645.917 237.933 647.625 239.075C644.005 239.94 624.779 239.527 619.647 239.492C619.54 241.224 619.494 243.458 619.073 245.097L619.014 238.499Z"/><path fill="#7A7C7B" d="M681.527 262.36C683.689 270.338 682.513 307.838 682.512 318.03L682.5 413.95L682.502 465.343C682.501 472.204 682.978 490.456 681.533 496.038L681.527 262.36Z"/><path fill="#FCF8EE" d="M511.155 480.88C512.845 483.06 522.227 502.626 523.859 505.938L553.412 565.707L625.647 711.698C638.127 736.837 651.391 762.101 663.364 787.402C652.309 787.538 641.252 787.556 630.196 787.458C625.702 778.721 621.073 768.089 616.871 759.037C608.223 740.248 599.402 721.539 590.409 702.913C565.563 652.11 539.093 601.558 514.497 550.764L512.759 547.307C509.471 553.337 505.155 563.601 502.193 570.085C495.665 584.524 488.987 598.895 482.162 613.195C454.21 671.191 425.79 728.961 396.906 786.498L364.623 786.482C370.495 772.848 380.538 754.129 387.294 740.538L433.065 648.757C446.718 621.404 458.339 595.926 471.135 568.258C484.716 539.243 498.056 510.116 511.155 480.88Z"/></svg>