<svg xmlns="http://www.w3.org/2000/svg" viewBox="300 165 420 695" fill="none">
<path fill="#ffffff" d="M312.117 175.77C322.464 175.097 341.884 175.689 352.939 175.68L436.477 175.574L512.807 334.469C538.535 281.774 563.989 228.947 589.17 175.989C629.436 175.32 669.711 175.3 709.978 175.929C710.306 192.22 710.023 209.484 710.024 225.83L710.022 320.447L710.035 604.66L710.049 718.016L709.98 751.369C709.967 756.552 709.788 765.56 710.301 770.413C710.709 774.264 715.997 784.994 717.817 789.517L699.733 789.612C682.677 750.771 663.393 711.336 645.179 672.967L562.742 500.57L531.118 435.949C525.166 423.791 518.705 411.096 513.211 398.817C501.72 425.4 487.442 454.83 475.02 481.147C443.917 547.115 411.895 612.645 378.961 677.718L352.234 731.165C350.099 735.475 342.498 750.097 341.828 753.707C340.877 758.831 341.255 773.045 341.278 778.892L341.259 818.976L422.154 818.958C441.531 778.072 462.216 736.159 482.186 695.536L502.58 653.932C505.898 647.095 510.18 638.8 513.013 631.954C516.265 637.359 520.841 647.158 523.737 652.988L542.79 691.497L605.254 819.454C633.619 818.693 662.333 819.439 690.724 819.187C697.131 819.13 704.214 819.029 710.566 819.515C718.111 832.838 719.143 832.759 718.976 848.048C675.409 848.466 631.445 847.39 587.903 848.521C585.26 843.372 582.705 837.883 580.227 832.641C558.747 787.207 534.875 742.488 513.703 696.968C503.3 720.258 490.593 745.057 479.258 767.947L439.364 848.893L311.464 848.979L311.937 372.233L311.937 235.221L311.855 196.117C311.838 191.282 311.542 180.034 312.117 175.77Z"/>
<path fill="#0d0d0d" d="M589.846 176.731C595.768 177.052 602.439 177.002 608.382 176.894C641.702 176.29 675.738 177.855 708.996 176.51L708.988 588.949L709.028 712.94L708.948 749.751C708.932 755.856 708.778 764.214 709.217 770.05C709.489 773.672 714.649 784.351 716.346 788.471C710.979 788.501 705.704 788.48 700.344 788.817C682.927 750.314 665.016 712.036 646.615 673.994C629.944 638.487 613.048 603.086 595.926 567.794C576.858 527.494 557.436 487.362 537.663 447.402C529.671 431.116 521.487 413.222 513.097 397.3L452.958 526.013C428.983 576.108 403.329 626.986 378.537 676.791L351.357 731.131C348.929 736.027 341.69 749.581 340.717 753.972C340.116 756.683 340.301 771.905 340.304 775.766C340.37 790.525 340.355 805.284 340.26 820.043C365.599 819.501 397.525 819.294 422.843 819.909C425.354 813.417 431.476 801.765 434.785 794.894L463.35 736.358C474.032 714.171 484.828 692.039 495.738 669.963C500.414 660.338 508.121 643.047 513.308 634.146C521.706 652.163 532.095 671.469 540.941 689.579L604.853 820.548C625.784 819.397 649.44 820.307 670.67 820.026C679.636 819.907 702.518 819.534 710.029 820.569C717.24 832.409 718.162 833.92 717.952 847.245C675.218 847.261 630.941 846.56 588.353 847.458L535.698 740.131C528.719 726.002 520.938 708.85 513.587 695.365C489.87 746.484 463.378 797.079 438.954 847.945L312.561 847.999L312.755 176.642L435.947 176.556C445.613 195.481 455.33 216.986 464.526 236.291L512.732 336.156C519.862 323.956 530.173 300.685 536.614 287.282L572.516 213.109C578.296 201.112 583.898 188.532 589.846 176.731Z"/>
<path fill="#ffffff" d="M340.438 205.245C365.673 205.246 393.57 205.815 418.582 204.976C434.254 236.463 449.533 269.25 464.73 300.982L496.754 366.575C485.779 392.611 469.678 424.376 457.26 450.127C435.941 494.734 414.358 539.213 392.511 583.564C380.669 608.11 368.645 632.568 356.439 656.936C353.223 663.386 350.045 669.855 346.907 676.344C345.25 679.776 342.796 685.323 340.852 688.312C339.952 686.123 340.413 590.688 340.411 582.009L340.438 205.245Z"/>
<path fill="#0d0d0d" d="M341.445 206.104L418.119 205.998C422.131 213.324 427.11 224.578 430.838 232.375L450.217 272.479C465.204 303.974 480.401 335.369 495.806 366.662C485.303 390.867 472.246 416.919 460.726 440.948C438.385 487.659 415.808 534.257 392.996 580.74L341.459 685.526C341.878 667.142 341.527 647.402 341.528 628.892L341.515 520.894L341.445 206.104Z"/>
<path fill="#ffffff" d="M376.725 237.127C382.774 237.098 388.738 237 394.779 237.357C409.036 264.726 423.43 292.023 437.961 319.248C445.921 334.181 456.598 352.646 463.727 367.559C459.403 377.961 452.484 394.241 446.852 403.906C439.7 391.831 434.016 377.82 427.363 365.366C420.135 351.835 413.939 337.488 406.565 324.023C406.935 356.097 407.09 388.174 407.029 420.25C406.962 434.373 407.003 448.496 407.154 462.619C407.255 470.622 408.444 480.878 406.992 488.655C406.085 493.52 381.091 547.615 376.706 554.812L376.954 348.442C377.007 325.529 376.926 302.615 376.712 279.702C376.635 266.086 376.301 250.615 376.725 237.127Z"/>
<path fill="#0d0d0d" d="M377.53 238.018C383.079 238.002 388.629 238.032 394.178 238.107C405.567 258.284 417.41 282.457 428.505 303.265L449.616 342.81C453.888 350.766 458.915 359.597 462.783 367.673C458.115 378.602 452.374 392.148 446.784 402.49L406.11 321.06C405.227 328.625 405.908 343.97 405.938 352.249L405.982 413.875L406.167 461.585C406.225 468.268 406.777 483.728 405.748 489.798C405.236 492.822 397.849 508.085 396.267 511.476C389.975 524.894 383.754 538.345 377.602 551.827C377.368 529.141 378.106 506.221 377.969 483.508C377.478 401.885 378.774 319.583 377.53 238.018Z"/>
<path fill="#ffffff" d="M606.601 202.984C631.713 203.321 657.381 202.942 682.59 203.062L682.551 481.111L683.135 692.969C676.642 676.238 666.056 654.592 658.278 638.155C655.456 630.997 649.637 619.318 646.242 612.168C640.285 599.379 634.263 586.621 628.176 573.893L568.243 448.131L542.32 394.894C537.99 385.955 532.64 375.735 528.87 366.678C555.132 312.281 581.043 257.715 606.601 202.984Z"/>
<path fill="#0d0d0d" d="M607.251 203.796C613.314 204.259 625.32 203.869 631.748 203.868L681.494 203.869C681.789 225.471 681.537 247.811 681.55 269.468L681.526 406.196L681.963 687.766C674.25 669.823 665.416 651.429 657.208 633.626C629.526 574.415 601.531 515.35 573.225 456.435C559.176 427.323 542.941 395.961 529.785 366.686C537.485 351.13 544.833 334.903 552.318 319.192L589.98 240.546C595.673 228.554 601.413 215.574 607.251 203.796Z"/>
<path fill="#0d0d0d" d="M618.616 238.501L647.978 238.434L648.002 435.399C647.997 471.384 648.854 512.339 647.466 548.05C646.132 545.805 644.607 543.492 643.719 541.064C642.352 538.606 638.857 532.569 638.646 530.101C636.18 526.69 628.632 509.627 626.37 504.723C616.909 484.369 607.6 463.944 598.444 443.451C590.846 426.77 583.162 410.129 575.392 393.528C572.214 386.711 565.992 374.29 563.412 367.489C568.532 357.356 574.547 344.476 579.888 334.751L603.677 387.589C608.542 398.412 614.977 411.905 618.936 422.902L618.959 304.817C618.956 283.796 619.517 259.267 618.616 238.501Z"/>
<path fill="#ffffff" d="M618.616 238.501L647.978 238.434L648.002 435.399C647.997 471.384 648.854 512.339 647.466 548.05C646.132 545.805 644.607 543.492 643.719 541.064C644.851 542.221 645.627 543.656 646.505 545.048C647.236 530.964 646.989 515.842 646.991 501.663L646.996 438.051L647.012 239.425C638.107 239.186 628.471 239.397 619.514 239.428C620.088 246.034 619.85 256.187 619.883 263.053L619.992 306.326L619.947 426.847C607.858 397.424 592.925 365.565 579.747 336.424C574.741 346.992 569.367 357.112 564.321 367.59C566.028 371.926 569.249 378.334 571.309 382.762L585.025 412.266L619.612 488.099L631.886 514.403C633.718 518.326 637.571 526.175 638.646 530.101C636.18 526.69 628.632 509.627 626.37 504.723C616.909 484.369 607.6 463.944 598.444 443.451C590.846 426.77 583.162 410.129 575.392 393.528C572.214 386.711 565.992 374.29 563.412 367.489C568.532 357.356 574.547 344.476 579.888 334.751L603.677 387.589C608.542 398.412 614.977 411.905 618.936 422.902L618.959 304.817C618.956 283.796 619.517 259.267 618.616 238.501Z"/>
<path fill="#ffffff" d="M511.021 480.256C512.84 482.106 521.652 500.517 523.576 504.398L549.418 556.546L620.095 699.13C635.053 728.631 649.756 758.26 664.203 788.014L630.057 788.06C626.038 780.751 620.375 767.354 616.623 759.325C607.438 739.543 598.094 719.835 588.591 700.203C564.652 650.988 538.748 601.967 515.116 552.802L512.887 548.385C476.245 629.698 436.055 707.063 397.311 787.011L364.016 787.021C371.054 771.231 381.01 752.426 388.805 736.745L436.847 640.397C443.834 626.419 450.855 612.377 457.131 598.061C474.435 558.587 493.901 519.767 511.021 480.256Z"/>
<path fill="#0d0d0d" d="M511.187 482.271C512.903 483.797 538.749 537.081 541.839 543.319L610.824 682.441L640.546 742.031C647.862 756.577 656.016 772.302 662.644 787.115C651.941 786.98 641.236 787.007 630.534 787.196C626.369 779.002 622.029 769.028 618.094 760.575C609.217 741.309 600.172 722.121 590.96 703.013L514.49 549.75L512.903 546.707C508.971 553.937 504.032 565.885 500.457 573.646C492.883 590.187 485.108 606.636 477.134 622.988L396.746 786.103C386.83 785.723 375.457 785.989 365.434 785.99C371.825 771.264 382.528 751.195 389.847 736.47L441.147 633.747C451.381 613.168 460.224 593.102 469.827 572.247L511.187 482.271Z"/>
</svg>
